<?xml version="1.0" standalone="no"?>
<!DOCTYPE svg PUBLIC "-//W3C//DTD SVG 20010904//EN"
 "http://www.w3.org/TR/2001/REC-SVG-20010904/DTD/svg10.dtd">
<svg version="1.0" xmlns="http://www.w3.org/2000/svg"
 width="512.000000pt" height="512.000000pt" viewBox="0 0 512.000000 512.000000"
 preserveAspectRatio="xMidYMid meet">
<metadata>
Created by potrace 1.14, written by Peter Selinger 2001-2017
</metadata>
<g transform="translate(0.000000,512.000000) scale(0.100000,-0.100000)"
fill="#000000" stroke="none">
<path d="M2465 4008 c-11 -6 -28 -20 -37 -32 -16 -20 -18 -89 -17 -1026 0
-775 2 -1009 12 -1021 43 -55 112 -61 161 -12 l26 26 0 1006 c0 938 -2 1007
-18 1027 -33 42 -86 55 -127 32z"/>
<path d="M3820 3351 c-107 -48 -305 -136 -439 -196 -135 -60 -257 -120 -272
-132 -49 -42 -47 -122 5 -156 28 -19 872 -397 910 -408 19 -5 39 -4 61 5 60
26 81 85 51 145 -17 32 -37 42 -428 216 -235 105 -293 135 -259 135 4 0 154
65 332 145 213 95 332 153 347 170 55 64 2 166 -85 164 -15 0 -116 -40 -223
-88z"/>
<path d="M884 2735 c-76 -32 -81 -86 -23 -258 225 -679 798 -1208 1493 -1378
232 -56 515 -78 565 -43 30 22 52 74 43 105 -19 66 -57 89 -145 89 -237 0
-531 69 -766 181 -200 95 -349 197 -505 348 -235 228 -388 472 -490 780 -45
137 -68 173 -116 184 -14 3 -39 0 -56 -8z"/>
</g>
</svg>
